<mxfile host="app.diagrams.net" agent="Mozilla/5.0 (Windows NT 10.0; Win64; x64) AppleWebKit/537.36 (KHTML, like Gecko) Chrome/132.0.0.0 Safari/537.36" version="26.0.10">
  <diagram name="Page-1" id="2kpIb5joCAadcY8Nv9MY">
    <mxGraphModel dx="578" dy="713" grid="1" gridSize="10" guides="1" tooltips="1" connect="1" arrows="1" fold="1" page="1" pageScale="1" pageWidth="827" pageHeight="1169" math="0" shadow="0">
      <root>
        <mxCell id="0" />
        <mxCell id="1" parent="0" />
        <mxCell id="KFyYCHIbyRh4kmoTDsA7-1" value="" style="rounded=1;whiteSpace=wrap;html=1;arcSize=1;fillColor=#d5e8d4;strokeColor=#82b366;" parent="1" vertex="1">
          <mxGeometry x="184" y="70" width="586" height="570" as="geometry" />
        </mxCell>
        <mxCell id="KFyYCHIbyRh4kmoTDsA7-3" value="&lt;b&gt;STLINK&lt;/b&gt;" style="rounded=1;whiteSpace=wrap;html=1;arcSize=1;fillColor=#f5f5f5;fontColor=#333333;strokeColor=#666666;" parent="1" vertex="1">
          <mxGeometry x="366" y="82.5" width="181" height="90" as="geometry" />
        </mxCell>
        <mxCell id="KFyYCHIbyRh4kmoTDsA7-4" value="&lt;b&gt;LoRa&lt;/b&gt;" style="rounded=1;whiteSpace=wrap;html=1;arcSize=1;fillColor=#f5f5f5;fontColor=#333333;strokeColor=#666666;" parent="1" vertex="1">
          <mxGeometry x="652" y="242.5" width="95" height="170" as="geometry" />
        </mxCell>
        <mxCell id="KFyYCHIbyRh4kmoTDsA7-5" value="&lt;b&gt;Reset&lt;/b&gt;" style="rounded=1;whiteSpace=wrap;html=1;arcSize=1;fillColor=#f5f5f5;fontColor=#333333;strokeColor=#666666;" parent="1" vertex="1">
          <mxGeometry x="427" y="492.5" width="50" height="30" as="geometry" />
        </mxCell>
        <mxCell id="KFyYCHIbyRh4kmoTDsA7-6" value="&lt;b&gt;Regulator&lt;/b&gt;" style="rounded=1;whiteSpace=wrap;html=1;arcSize=1;fillColor=#f5f5f5;fontColor=#333333;strokeColor=#666666;" parent="1" vertex="1">
          <mxGeometry x="197" y="142.5" width="125" height="70" as="geometry" />
        </mxCell>
        <mxCell id="KFyYCHIbyRh4kmoTDsA7-7" value="&lt;b&gt;STM32L432&lt;/b&gt;" style="rounded=1;whiteSpace=wrap;html=1;arcSize=1;fillColor=#f5f5f5;fontColor=#333333;strokeColor=#666666;" parent="1" vertex="1">
          <mxGeometry x="344.5" y="242.5" width="222.5" height="220" as="geometry" />
        </mxCell>
        <mxCell id="RVv1P39pRb4JXbg1nMvm-1" value="&lt;font style=&quot;color: rgb(255, 0, 0);&quot;&gt;Vin&lt;/font&gt;" style="text;html=1;align=center;verticalAlign=middle;whiteSpace=wrap;rounded=0;" parent="1" vertex="1">
          <mxGeometry x="229.5" y="136.5" width="60" height="30" as="geometry" />
        </mxCell>
        <mxCell id="RVv1P39pRb4JXbg1nMvm-2" value="&lt;font style=&quot;color: rgb(255, 0, 0);&quot;&gt;1.8V&lt;/font&gt;" style="text;html=1;align=center;verticalAlign=middle;whiteSpace=wrap;rounded=0;" parent="1" vertex="1">
          <mxGeometry x="197" y="186.5" width="60" height="30" as="geometry" />
        </mxCell>
        <mxCell id="RVv1P39pRb4JXbg1nMvm-3" value="&lt;font style=&quot;color: rgb(255, 0, 0);&quot;&gt;3.3V&lt;/font&gt;" style="text;html=1;align=center;verticalAlign=middle;whiteSpace=wrap;rounded=0;" parent="1" vertex="1">
          <mxGeometry x="260.5" y="189.5" width="60" height="23" as="geometry" />
        </mxCell>
        <mxCell id="RVv1P39pRb4JXbg1nMvm-4" value="" style="endArrow=classic;html=1;rounded=0;exitX=0;exitY=0.25;exitDx=0;exitDy=0;strokeColor=light-dark(#FF0000,#FFFFFF);" parent="1" source="KFyYCHIbyRh4kmoTDsA7-3" edge="1">
          <mxGeometry width="50" height="50" relative="1" as="geometry">
            <mxPoint x="229.5" y="122.5" as="sourcePoint" />
            <mxPoint x="260" y="142.5" as="targetPoint" />
            <Array as="points">
              <mxPoint x="260" y="105.5" />
            </Array>
          </mxGeometry>
        </mxCell>
        <mxCell id="RVv1P39pRb4JXbg1nMvm-5" value="&lt;font style=&quot;color: rgb(255, 0, 0);&quot;&gt;VDD&lt;/font&gt;" style="text;html=1;align=center;verticalAlign=middle;whiteSpace=wrap;rounded=0;" parent="1" vertex="1">
          <mxGeometry x="344.5" y="242.5" width="60" height="12" as="geometry" />
        </mxCell>
        <mxCell id="RVv1P39pRb4JXbg1nMvm-6" value="" style="endArrow=classic;html=1;rounded=0;entryX=0.5;entryY=0;entryDx=0;entryDy=0;exitX=0.447;exitY=1.038;exitDx=0;exitDy=0;exitPerimeter=0;strokeColor=light-dark(#FF0000,#FFFFFF);" parent="1" source="RVv1P39pRb4JXbg1nMvm-3" target="RVv1P39pRb4JXbg1nMvm-5" edge="1">
          <mxGeometry width="50" height="50" relative="1" as="geometry">
            <mxPoint x="397" y="392.5" as="sourcePoint" />
            <mxPoint x="447" y="342.5" as="targetPoint" />
            <Array as="points">
              <mxPoint x="287" y="222.5" />
              <mxPoint x="375" y="222.5" />
            </Array>
          </mxGeometry>
        </mxCell>
        <mxCell id="RVv1P39pRb4JXbg1nMvm-7" value="&lt;font style=&quot;color: rgb(255, 0, 0);&quot;&gt;5V&lt;/font&gt;" style="text;html=1;align=center;verticalAlign=middle;whiteSpace=wrap;rounded=0;" parent="1" vertex="1">
          <mxGeometry x="351" y="90.5" width="60" height="30" as="geometry" />
        </mxCell>
        <mxCell id="RVv1P39pRb4JXbg1nMvm-8" value="STLINK-V3PWR" style="text;html=1;align=center;verticalAlign=middle;whiteSpace=wrap;rounded=0;" parent="1" vertex="1">
          <mxGeometry x="367" y="160.5" width="100" height="12" as="geometry" />
        </mxCell>
        <mxCell id="RVv1P39pRb4JXbg1nMvm-9" value="TX" style="text;html=1;align=center;verticalAlign=middle;whiteSpace=wrap;rounded=0;" parent="1" vertex="1">
          <mxGeometry x="497" y="160.5" width="16" height="10" as="geometry" />
        </mxCell>
        <mxCell id="RVv1P39pRb4JXbg1nMvm-10" value="RX" style="text;html=1;align=center;verticalAlign=middle;whiteSpace=wrap;rounded=0;" parent="1" vertex="1">
          <mxGeometry x="523" y="160.5" width="16" height="10" as="geometry" />
        </mxCell>
        <mxCell id="RVv1P39pRb4JXbg1nMvm-11" value="" style="endArrow=classic;html=1;rounded=0;exitX=0.5;exitY=1;exitDx=0;exitDy=0;" parent="1" source="RVv1P39pRb4JXbg1nMvm-8" edge="1">
          <mxGeometry width="50" height="50" relative="1" as="geometry">
            <mxPoint x="417" y="242.5" as="sourcePoint" />
            <mxPoint x="417" y="242.5" as="targetPoint" />
          </mxGeometry>
        </mxCell>
        <mxCell id="RVv1P39pRb4JXbg1nMvm-12" value="" style="endArrow=classic;startArrow=classic;html=1;rounded=0;entryX=0.895;entryY=0.958;entryDx=0;entryDy=0;entryPerimeter=0;" parent="1" source="KFyYCHIbyRh4kmoTDsA7-7" target="RVv1P39pRb4JXbg1nMvm-8" edge="1">
          <mxGeometry width="50" height="50" relative="1" as="geometry">
            <mxPoint x="457" y="242.5" as="sourcePoint" />
            <mxPoint x="507" y="192.5" as="targetPoint" />
          </mxGeometry>
        </mxCell>
        <mxCell id="RVv1P39pRb4JXbg1nMvm-14" value="" style="endArrow=classic;html=1;rounded=0;exitX=0.5;exitY=1;exitDx=0;exitDy=0;" parent="1" edge="1">
          <mxGeometry width="50" height="50" relative="1" as="geometry">
            <mxPoint x="504.78" y="172.5" as="sourcePoint" />
            <mxPoint x="504.78" y="242.5" as="targetPoint" />
          </mxGeometry>
        </mxCell>
        <mxCell id="RVv1P39pRb4JXbg1nMvm-15" value="" style="endArrow=classic;html=1;rounded=0;exitX=0.867;exitY=-0.001;exitDx=0;exitDy=0;exitPerimeter=0;entryX=0.552;entryY=0.217;entryDx=0;entryDy=0;entryPerimeter=0;" parent="1" edge="1">
          <mxGeometry width="50" height="50" relative="1" as="geometry">
            <mxPoint x="532.4074999999999" y="242.28000000000003" as="sourcePoint" />
            <mxPoint x="532.28" y="172.37" as="targetPoint" />
          </mxGeometry>
        </mxCell>
        <mxCell id="RVv1P39pRb4JXbg1nMvm-16" value="RFM95W" style="text;html=1;align=center;verticalAlign=middle;whiteSpace=wrap;rounded=0;" parent="1" vertex="1">
          <mxGeometry x="653" y="245.5" width="54" height="10" as="geometry" />
        </mxCell>
        <mxCell id="RVv1P39pRb4JXbg1nMvm-17" value="NSS" style="text;html=1;align=left;verticalAlign=middle;whiteSpace=wrap;rounded=0;" parent="1" vertex="1">
          <mxGeometry x="652" y="347.5" width="24" height="10" as="geometry" />
        </mxCell>
        <mxCell id="RVv1P39pRb4JXbg1nMvm-18" value="DIO1" style="text;html=1;align=left;verticalAlign=middle;whiteSpace=wrap;rounded=0;" parent="1" vertex="1">
          <mxGeometry x="652" y="371.5" width="24" height="10" as="geometry" />
        </mxCell>
        <mxCell id="RVv1P39pRb4JXbg1nMvm-21" value="DIO0" style="text;html=1;align=left;verticalAlign=middle;whiteSpace=wrap;rounded=0;" parent="1" vertex="1">
          <mxGeometry x="652" y="392.5" width="24" height="10" as="geometry" />
        </mxCell>
        <mxCell id="RVv1P39pRb4JXbg1nMvm-23" value="" style="endArrow=classic;html=1;rounded=0;entryX=0;entryY=0.5;entryDx=0;entryDy=0;exitX=1;exitY=0.5;exitDx=0;exitDy=0;" parent="1" source="KFyYCHIbyRh4kmoTDsA7-7" target="RVv1P39pRb4JXbg1nMvm-17" edge="1">
          <mxGeometry width="50" height="50" relative="1" as="geometry">
            <mxPoint x="577" y="382.5" as="sourcePoint" />
            <mxPoint x="627" y="332.5" as="targetPoint" />
          </mxGeometry>
        </mxCell>
        <mxCell id="RVv1P39pRb4JXbg1nMvm-24" value="" style="endArrow=classic;html=1;rounded=0;exitX=0;exitY=0.5;exitDx=0;exitDy=0;entryX=0.999;entryY=0.609;entryDx=0;entryDy=0;entryPerimeter=0;" parent="1" source="RVv1P39pRb4JXbg1nMvm-18" target="KFyYCHIbyRh4kmoTDsA7-7" edge="1">
          <mxGeometry width="50" height="50" relative="1" as="geometry">
            <mxPoint x="577" y="382.5" as="sourcePoint" />
            <mxPoint x="627" y="332.5" as="targetPoint" />
          </mxGeometry>
        </mxCell>
        <mxCell id="RVv1P39pRb4JXbg1nMvm-25" value="" style="endArrow=classic;html=1;rounded=0;exitX=0;exitY=0.5;exitDx=0;exitDy=0;entryX=0.999;entryY=0.609;entryDx=0;entryDy=0;entryPerimeter=0;" parent="1" edge="1">
          <mxGeometry width="50" height="50" relative="1" as="geometry">
            <mxPoint x="652" y="397.29" as="sourcePoint" />
            <mxPoint x="567" y="397.29" as="targetPoint" />
          </mxGeometry>
        </mxCell>
        <mxCell id="RVv1P39pRb4JXbg1nMvm-26" value="PB7" style="text;html=1;align=left;verticalAlign=middle;whiteSpace=wrap;rounded=0;" parent="1" vertex="1">
          <mxGeometry x="537" y="371.5" width="24" height="10" as="geometry" />
        </mxCell>
        <mxCell id="RVv1P39pRb4JXbg1nMvm-27" value="PB6" style="text;html=1;align=left;verticalAlign=middle;whiteSpace=wrap;rounded=0;" parent="1" vertex="1">
          <mxGeometry x="537" y="392.5" width="24" height="10" as="geometry" />
        </mxCell>
        <mxCell id="RVv1P39pRb4JXbg1nMvm-28" value="PA15" style="text;html=1;align=left;verticalAlign=middle;whiteSpace=wrap;rounded=0;" parent="1" vertex="1">
          <mxGeometry x="532" y="347.5" width="24" height="10" as="geometry" />
        </mxCell>
        <mxCell id="RVv1P39pRb4JXbg1nMvm-30" value="PA2" style="text;html=1;align=left;verticalAlign=middle;whiteSpace=wrap;rounded=0;" parent="1" vertex="1">
          <mxGeometry x="492" y="244.5" width="24" height="10" as="geometry" />
        </mxCell>
        <mxCell id="RVv1P39pRb4JXbg1nMvm-31" value="PA3" style="text;html=1;align=left;verticalAlign=middle;whiteSpace=wrap;rounded=0;" parent="1" vertex="1">
          <mxGeometry x="519" y="244.5" width="24" height="10" as="geometry" />
        </mxCell>
        <mxCell id="RVv1P39pRb4JXbg1nMvm-32" style="edgeStyle=orthogonalEdgeStyle;rounded=0;orthogonalLoop=1;jettySize=auto;html=1;exitX=0.5;exitY=1;exitDx=0;exitDy=0;" parent="1" source="RVv1P39pRb4JXbg1nMvm-5" target="RVv1P39pRb4JXbg1nMvm-5" edge="1">
          <mxGeometry relative="1" as="geometry" />
        </mxCell>
        <mxCell id="RVv1P39pRb4JXbg1nMvm-34" value="GND&lt;span style=&quot;color: rgba(0, 0, 0, 0); font-family: monospace; font-size: 0px; text-wrap-mode: nowrap;&quot;&gt;%3CmxGraphModel%3E%3Croot%3E%3CmxCell%20id%3D%220%22%2F%3E%3CmxCell%20id%3D%221%22%20parent%3D%220%22%2F%3E%3CmxCell%20id%3D%222%22%20value%3D%22PA2%22%20style%3D%22text%3Bhtml%3D1%3Balign%3Dleft%3BverticalAlign%3Dmiddle%3BwhiteSpace%3Dwrap%3Brounded%3D0%3B%22%20vertex%3D%221%22%20parent%3D%221%22%3E%3CmxGeometry%20x%3D%22495%22%20y%3D%22222%22%20width%3D%2224%22%20height%3D%2210%22%20as%3D%22geometry%22%2F%3E%3C%2FmxCell%3E%3C%2Froot%3E%3C%2FmxGraphModel%3E&lt;/span&gt;" style="text;html=1;align=left;verticalAlign=middle;whiteSpace=wrap;rounded=0;" parent="1" vertex="1">
          <mxGeometry x="405" y="244.5" width="24" height="10" as="geometry" />
        </mxCell>
        <mxCell id="RVv1P39pRb4JXbg1nMvm-35" value="SWx" style="text;html=1;align=left;verticalAlign=middle;whiteSpace=wrap;rounded=0;" parent="1" vertex="1">
          <mxGeometry x="443" y="245.5" width="24" height="10" as="geometry" />
        </mxCell>
        <mxCell id="RVv1P39pRb4JXbg1nMvm-36" value="RESET" style="text;html=1;align=left;verticalAlign=middle;whiteSpace=wrap;rounded=0;" parent="1" vertex="1">
          <mxGeometry x="428.5" y="449.5" width="47" height="10" as="geometry" />
        </mxCell>
        <mxCell id="RVv1P39pRb4JXbg1nMvm-37" value="" style="endArrow=classic;html=1;rounded=0;exitX=0.5;exitY=0;exitDx=0;exitDy=0;entryX=0.481;entryY=0.999;entryDx=0;entryDy=0;entryPerimeter=0;" parent="1" source="KFyYCHIbyRh4kmoTDsA7-5" target="KFyYCHIbyRh4kmoTDsA7-7" edge="1">
          <mxGeometry width="50" height="50" relative="1" as="geometry">
            <mxPoint x="457" y="472.5" as="sourcePoint" />
            <mxPoint x="507" y="422.5" as="targetPoint" />
          </mxGeometry>
        </mxCell>
        <mxCell id="RVv1P39pRb4JXbg1nMvm-38" value="&lt;b&gt;Buzzer&lt;/b&gt;" style="rounded=1;whiteSpace=wrap;html=1;arcSize=1;fillColor=#f5f5f5;fontColor=#333333;strokeColor=#666666;" parent="1" vertex="1">
          <mxGeometry x="349.5" y="492.5" width="50" height="30" as="geometry" />
        </mxCell>
        <mxCell id="RVv1P39pRb4JXbg1nMvm-39" value="PA6" style="text;html=1;align=left;verticalAlign=middle;whiteSpace=wrap;rounded=0;" parent="1" vertex="1">
          <mxGeometry x="361.5" y="449.5" width="47" height="10" as="geometry" />
        </mxCell>
        <mxCell id="RVv1P39pRb4JXbg1nMvm-40" value="" style="endArrow=none;html=1;rounded=0;exitX=0.5;exitY=0;exitDx=0;exitDy=0;entryX=0.481;entryY=0.999;entryDx=0;entryDy=0;entryPerimeter=0;startArrow=classic;startFill=1;endFill=0;" parent="1" edge="1">
          <mxGeometry width="50" height="50" relative="1" as="geometry">
            <mxPoint x="374.26" y="492.5" as="sourcePoint" />
            <mxPoint x="374.26" y="462.5" as="targetPoint" />
          </mxGeometry>
        </mxCell>
        <mxCell id="RVv1P39pRb4JXbg1nMvm-42" value="&lt;b&gt;BME&lt;/b&gt;" style="rounded=1;whiteSpace=wrap;html=1;arcSize=1;fillColor=#f5f5f5;fontColor=#333333;strokeColor=#666666;" parent="1" vertex="1">
          <mxGeometry x="202" y="262.5" width="105" height="160" as="geometry" />
        </mxCell>
        <mxCell id="RVv1P39pRb4JXbg1nMvm-43" value="&lt;b&gt;Water level Detector&lt;/b&gt;" style="rounded=1;whiteSpace=wrap;html=1;arcSize=1;fillColor=#f5f5f5;fontColor=#333333;strokeColor=#666666;" parent="1" vertex="1">
          <mxGeometry x="497" y="492.5" width="100" height="130" as="geometry" />
        </mxCell>
        <mxCell id="RVv1P39pRb4JXbg1nMvm-44" value="VDD" style="text;html=1;align=left;verticalAlign=middle;whiteSpace=wrap;rounded=0;" parent="1" vertex="1">
          <mxGeometry x="501" y="497.5" width="26" height="10" as="geometry" />
        </mxCell>
        <mxCell id="RVv1P39pRb4JXbg1nMvm-45" value="Water level" style="text;html=1;align=left;verticalAlign=middle;whiteSpace=wrap;rounded=0;" parent="1" vertex="1">
          <mxGeometry x="534" y="496.5" width="69" height="10" as="geometry" />
        </mxCell>
        <mxCell id="RVv1P39pRb4JXbg1nMvm-46" value="" style="endArrow=none;html=1;rounded=0;exitX=0.5;exitY=0;exitDx=0;exitDy=0;entryX=0.481;entryY=0.999;entryDx=0;entryDy=0;entryPerimeter=0;startArrow=classic;startFill=1;endFill=0;" parent="1" edge="1">
          <mxGeometry width="50" height="50" relative="1" as="geometry">
            <mxPoint x="513.78" y="492.5" as="sourcePoint" />
            <mxPoint x="513.78" y="462.5" as="targetPoint" />
          </mxGeometry>
        </mxCell>
        <mxCell id="RVv1P39pRb4JXbg1nMvm-47" value="" style="endArrow=classic;html=1;rounded=0;exitX=0.5;exitY=0;exitDx=0;exitDy=0;entryX=0.481;entryY=0.999;entryDx=0;entryDy=0;entryPerimeter=0;" parent="1" edge="1">
          <mxGeometry width="50" height="50" relative="1" as="geometry">
            <mxPoint x="550.78" y="492.5" as="sourcePoint" />
            <mxPoint x="550.78" y="462.5" as="targetPoint" />
          </mxGeometry>
        </mxCell>
        <mxCell id="E0EVyCB-PvP3is47YVk0-1" value="VDD" style="text;html=1;align=left;verticalAlign=middle;whiteSpace=wrap;rounded=0;" vertex="1" parent="1">
          <mxGeometry x="501" y="449.5" width="26" height="10" as="geometry" />
        </mxCell>
        <mxCell id="E0EVyCB-PvP3is47YVk0-4" value="" style="rounded=0;whiteSpace=wrap;html=1;strokeColor=light-dark(#1A1A1A,#FFFFFF);fillColor=light-dark(#FFE6CC,var(--ge-dark-color, #121212));" vertex="1" parent="1">
          <mxGeometry x="510" y="262.5" width="57" height="77.5" as="geometry" />
        </mxCell>
        <mxCell id="RVv1P39pRb4JXbg1nMvm-29" value="SPI3" style="text;html=1;align=left;verticalAlign=middle;whiteSpace=wrap;rounded=0;fontStyle=1" parent="1" vertex="1">
          <mxGeometry x="510" y="262.5" width="24" height="10" as="geometry" />
        </mxCell>
        <mxCell id="E0EVyCB-PvP3is47YVk0-5" value="&lt;font style=&quot;font-size: 9px;&quot;&gt;MOSI&lt;/font&gt;" style="text;html=1;align=left;verticalAlign=middle;whiteSpace=wrap;rounded=0;" vertex="1" parent="1">
          <mxGeometry x="592" y="265.5" width="33" height="10" as="geometry" />
        </mxCell>
        <mxCell id="E0EVyCB-PvP3is47YVk0-6" value="&lt;font style=&quot;font-size: 9px;&quot;&gt;MISO&lt;/font&gt;" style="text;html=1;align=left;verticalAlign=middle;whiteSpace=wrap;rounded=0;" vertex="1" parent="1">
          <mxGeometry x="592" y="285.5" width="33" height="10" as="geometry" />
        </mxCell>
        <mxCell id="E0EVyCB-PvP3is47YVk0-7" value="&lt;font style=&quot;font-size: 9px;&quot;&gt;SCK&lt;/font&gt;" style="text;html=1;align=left;verticalAlign=middle;whiteSpace=wrap;rounded=0;" vertex="1" parent="1">
          <mxGeometry x="595" y="305.5" width="33" height="10" as="geometry" />
        </mxCell>
        <mxCell id="E0EVyCB-PvP3is47YVk0-9" value="PB5" style="text;html=1;align=left;verticalAlign=middle;whiteSpace=wrap;rounded=0;" vertex="1" parent="1">
          <mxGeometry x="535" y="272.5" width="24" height="10" as="geometry" />
        </mxCell>
        <mxCell id="E0EVyCB-PvP3is47YVk0-10" value="PB4" style="text;html=1;align=left;verticalAlign=middle;whiteSpace=wrap;rounded=0;" vertex="1" parent="1">
          <mxGeometry x="536" y="292.5" width="24" height="10" as="geometry" />
        </mxCell>
        <mxCell id="E0EVyCB-PvP3is47YVk0-11" value="PB3" style="text;html=1;align=left;verticalAlign=middle;whiteSpace=wrap;rounded=0;" vertex="1" parent="1">
          <mxGeometry x="537" y="312.5" width="24" height="10" as="geometry" />
        </mxCell>
        <mxCell id="E0EVyCB-PvP3is47YVk0-12" value="" style="endArrow=classic;html=1;rounded=0;entryX=1.017;entryY=0.191;entryDx=0;entryDy=0;entryPerimeter=0;exitX=-0.005;exitY=0.207;exitDx=0;exitDy=0;exitPerimeter=0;" edge="1" parent="1" source="KFyYCHIbyRh4kmoTDsA7-4" target="E0EVyCB-PvP3is47YVk0-4">
          <mxGeometry width="50" height="50" relative="1" as="geometry">
            <mxPoint x="550" y="340" as="sourcePoint" />
            <mxPoint x="600" y="290" as="targetPoint" />
          </mxGeometry>
        </mxCell>
        <mxCell id="E0EVyCB-PvP3is47YVk0-13" value="" style="endArrow=classic;html=1;rounded=0;entryX=-0.005;entryY=0.324;entryDx=0;entryDy=0;entryPerimeter=0;exitX=0.997;exitY=0.453;exitDx=0;exitDy=0;exitPerimeter=0;" edge="1" parent="1" source="E0EVyCB-PvP3is47YVk0-4" target="KFyYCHIbyRh4kmoTDsA7-4">
          <mxGeometry width="50" height="50" relative="1" as="geometry">
            <mxPoint x="550" y="340" as="sourcePoint" />
            <mxPoint x="600" y="290" as="targetPoint" />
          </mxGeometry>
        </mxCell>
        <mxCell id="E0EVyCB-PvP3is47YVk0-14" value="" style="endArrow=classic;html=1;rounded=0;entryX=-0.005;entryY=0.324;entryDx=0;entryDy=0;entryPerimeter=0;exitX=0.997;exitY=0.453;exitDx=0;exitDy=0;exitPerimeter=0;" edge="1" parent="1">
          <mxGeometry width="50" height="50" relative="1" as="geometry">
            <mxPoint x="567" y="317.26" as="sourcePoint" />
            <mxPoint x="652" y="317.26" as="targetPoint" />
          </mxGeometry>
        </mxCell>
        <mxCell id="E0EVyCB-PvP3is47YVk0-15" value="" style="rounded=0;whiteSpace=wrap;html=1;fillColor=light-dark(#FFCCE6,var(--ge-dark-color, #121212));" vertex="1" parent="1">
          <mxGeometry x="344.5" y="287" width="65.5" height="84.5" as="geometry" />
        </mxCell>
        <mxCell id="RVv1P39pRb4JXbg1nMvm-49" value="I2C1" style="text;html=1;align=left;verticalAlign=middle;whiteSpace=wrap;rounded=0;fontStyle=1" parent="1" vertex="1">
          <mxGeometry x="382.5" y="288.5" width="24" height="10" as="geometry" />
        </mxCell>
        <mxCell id="E0EVyCB-PvP3is47YVk0-17" value="PA10&lt;span style=&quot;color: rgba(0, 0, 0, 0); font-family: monospace; font-size: 0px; text-wrap-mode: nowrap;&quot;&gt;%3CmxGraphModel%3E%3Croot%3E%3CmxCell%20id%3D%220%22%2F%3E%3CmxCell%20id%3D%221%22%20parent%3D%220%22%2F%3E%3CmxCell%20id%3D%222%22%20value%3D%22I2C1%22%20style%3D%22text%3Bhtml%3D1%3Balign%3Dleft%3BverticalAlign%3Dmiddle%3BwhiteSpace%3Dwrap%3Brounded%3D0%3B%22%20vertex%3D%221%22%20parent%3D%221%22%3E%3CmxGeometry%20x%3D%22382.5%22%20y%3D%22288.5%22%20width%3D%2224%22%20height%3D%2210%22%20as%3D%22geometry%22%2F%3E%3C%2FmxCell%3E%3C%2Froot%3E%3C%2FmxGraphModel%3E&lt;/span&gt;" style="text;html=1;align=left;verticalAlign=middle;whiteSpace=wrap;rounded=0;" vertex="1" parent="1">
          <mxGeometry x="344.5" y="305.5" width="24" height="10" as="geometry" />
        </mxCell>
        <mxCell id="E0EVyCB-PvP3is47YVk0-18" value="PA9" style="text;html=1;align=left;verticalAlign=middle;whiteSpace=wrap;rounded=0;" vertex="1" parent="1">
          <mxGeometry x="344.5" y="337.5" width="24" height="10" as="geometry" />
        </mxCell>
        <mxCell id="E0EVyCB-PvP3is47YVk0-19" value="" style="endArrow=classic;html=1;rounded=0;exitX=0;exitY=0.5;exitDx=0;exitDy=0;entryX=1.003;entryY=0.302;entryDx=0;entryDy=0;entryPerimeter=0;" edge="1" parent="1" source="E0EVyCB-PvP3is47YVk0-17" target="RVv1P39pRb4JXbg1nMvm-42">
          <mxGeometry width="50" height="50" relative="1" as="geometry">
            <mxPoint x="350" y="340" as="sourcePoint" />
            <mxPoint x="400" y="290" as="targetPoint" />
          </mxGeometry>
        </mxCell>
        <mxCell id="E0EVyCB-PvP3is47YVk0-20" value="" style="endArrow=classic;html=1;rounded=0;exitX=0.997;exitY=0.513;exitDx=0;exitDy=0;exitPerimeter=0;entryX=0.006;entryY=0.463;entryDx=0;entryDy=0;entryPerimeter=0;" edge="1" parent="1" source="RVv1P39pRb4JXbg1nMvm-42" target="KFyYCHIbyRh4kmoTDsA7-7">
          <mxGeometry width="50" height="50" relative="1" as="geometry">
            <mxPoint x="350" y="340" as="sourcePoint" />
            <mxPoint x="400" y="290" as="targetPoint" />
          </mxGeometry>
        </mxCell>
        <mxCell id="E0EVyCB-PvP3is47YVk0-21" value="&lt;font style=&quot;font-size: 9px;&quot;&gt;SDA&lt;/font&gt;" style="text;html=1;align=left;verticalAlign=middle;whiteSpace=wrap;rounded=0;" vertex="1" parent="1">
          <mxGeometry x="318" y="298.5" width="33" height="10" as="geometry" />
        </mxCell>
        <mxCell id="E0EVyCB-PvP3is47YVk0-22" value="&lt;font style=&quot;font-size: 9px;&quot;&gt;SCL&lt;/font&gt;" style="text;html=1;align=left;verticalAlign=middle;whiteSpace=wrap;rounded=0;" vertex="1" parent="1">
          <mxGeometry x="311.5" y="332" width="33" height="10" as="geometry" />
        </mxCell>
        <mxCell id="E0EVyCB-PvP3is47YVk0-23" value="" style="rounded=0;whiteSpace=wrap;html=1;fillColor=light-dark(#CCE5FF,var(--ge-dark-color, #121212));" vertex="1" parent="1">
          <mxGeometry x="530" y="410" width="37" height="52.5" as="geometry" />
        </mxCell>
        <mxCell id="RVv1P39pRb4JXbg1nMvm-48" value="PA4" style="text;html=1;align=left;verticalAlign=middle;whiteSpace=wrap;rounded=0;" parent="1" vertex="1">
          <mxGeometry x="537" y="449.5" width="24" height="10" as="geometry" />
        </mxCell>
        <mxCell id="E0EVyCB-PvP3is47YVk0-24" value="ADC1" style="text;html=1;align=left;verticalAlign=middle;whiteSpace=wrap;rounded=0;fontStyle=1" vertex="1" parent="1">
          <mxGeometry x="530" y="412.5" width="24" height="10" as="geometry" />
        </mxCell>
      </root>
    </mxGraphModel>
  </diagram>
</mxfile>
